<svg width="20" height="20" viewBox="0 0 20 20" fill="none" xmlns="http://www.w3.org/2000/svg">
<path fill-rule="evenodd" clip-rule="evenodd" d="M2.5 4.10714C2.5 3.25422 3.17081 2.5 4.07407 2.5H15.9259C16.8292 2.5 17.5 3.25422 17.5 4.10714V13.3929C17.5 14.2458 16.8292 15 15.9259 15H13.0292L13.9735 16.1332C14.2682 16.4867 14.2204 17.0122 13.8668 17.3069C13.5133 17.6015 12.9878 17.5537 12.6931 17.2002L10.8597 15H9.14031L7.30685 17.2002C7.01221 17.5537 6.48674 17.6015 6.13318 17.3069C5.77962 17.0122 5.73185 16.4867 6.02648 16.1332L6.9708 15H4.07407C3.17081 15 2.5 14.2458 2.5 13.3929V4.10714ZM4.16667 4.16667V10.8333H10V9.16667C10 8.70643 10.3731 8.33333 10.8333 8.33333H14.1667C14.6269 8.33333 15 8.70643 15 9.16667V10.8333H15.8333V4.16667H4.16667ZM15.8333 12.5H4.16667V13.3333H15.8333V12.5ZM13.3333 10.8333V10H11.6667V10.8333H13.3333Z" fill="#4A5565"/>
</svg>
