<svg width="17" height="14" viewBox="0 0 17 14" fill="none" xmlns="http://www.w3.org/2000/svg">
<path fill-rule="evenodd" clip-rule="evenodd" d="M5.78292 0.884949C6.87601 0.169257 8.19096 -0.127218 9.48541 0.0501651C10.7799 0.227548 11.9666 0.866834 12.8268 1.8502C13.6186 2.7553 14.0848 3.89575 14.1569 5.09031C14.7323 5.23705 15.2633 5.53625 15.6904 5.9633C16.3155 6.58842 16.6667 7.43627 16.6667 8.32032C16.6667 9.20438 16.3155 10.0522 15.6904 10.6773C15.0652 11.3025 14.2174 11.6537 13.3333 11.6537H10.8333C10.3731 11.6537 10 11.2806 10 10.8203C10 10.3601 10.3731 9.98699 10.8333 9.98699H13.3333C13.7754 9.98699 14.1993 9.8114 14.5118 9.49884C14.8244 9.18627 15 8.76235 15 8.32032C15 7.8783 14.8244 7.45437 14.5118 7.14181C14.1993 6.82925 13.7754 6.65366 13.3333 6.65366H13.3125C13.0784 6.65366 12.8552 6.55523 12.6973 6.38244C12.5394 6.20965 12.4615 5.97843 12.4825 5.74533C12.4936 5.62357 12.5 5.51112 12.5 5.40487C12.4972 4.50075 12.1678 3.62808 11.5724 2.94758C10.9769 2.26679 10.1553 1.8242 9.25914 1.7014C8.36298 1.5786 7.45263 1.78385 6.69587 2.27933C5.93911 2.77481 5.38695 3.52712 5.14114 4.39761C5.03495 4.77366 4.68174 5.02542 4.29163 5.00313C4.2515 5.00084 4.2169 4.99697 4.19191 4.99383C4.17409 4.99159 4.15319 4.98863 4.14311 4.9872C4.14287 4.98717 4.14264 4.98714 4.14242 4.98711C3.48814 4.99344 2.86202 5.2561 2.3989 5.71922C1.93006 6.18806 1.66667 6.82395 1.66667 7.48699C1.66667 8.15003 1.93006 8.78592 2.3989 9.25476C2.86774 9.7236 3.50363 9.98699 4.16667 9.98699H5.9725C6.43274 9.98699 6.80583 10.3601 6.80583 10.8203C6.80583 11.2806 6.43274 11.6537 5.9725 11.6537H4.16667C3.0616 11.6537 2.00179 11.2147 1.22039 10.4333C0.438986 9.65187 0 8.59206 0 7.48699C0 6.38192 0.438987 5.32211 1.22039 4.54071C1.90214 3.85895 2.79583 3.43785 3.7466 3.34154C4.16142 2.34133 4.86884 1.48343 5.78292 0.884949ZM7.74408 4.39773C8.06951 4.0723 8.59715 4.0723 8.92259 4.39773L10.5893 6.0644C10.9147 6.38984 10.9147 6.91747 10.5893 7.24291C10.2638 7.56835 9.73618 7.56835 9.41074 7.24291L9.16667 6.99883V12.487C9.16667 12.9472 8.79357 13.3203 8.33333 13.3203C7.8731 13.3203 7.5 12.9472 7.5 12.487V6.99883L7.25592 7.24291C6.93049 7.56835 6.40285 7.56835 6.07741 7.24291C5.75197 6.91747 5.75197 6.38984 6.07741 6.0644L7.74408 4.39773Z" fill="#FFA600"/>
</svg>
