<svg xmlns="http://www.w3.org/2000/svg" width="20" height="20" fill="none" viewBox="0 0 20 20">
  <path fill="#FFA600" fill-rule="evenodd" d="M1.667 5c0-.92.746-1.667 1.666-1.667h13.334c.92 0 1.666.747 1.666 1.667v1.658a.833.833 0 0 1-1.666 0V5H3.332v3.333h3.333c.46 0 .834.373.834.834v6.666c0 .46-.373.834-.833.834H3.333c-.92 0-1.667-.747-1.667-1.667V5Zm1.666 5v1.667h2.5V10h-2.5Zm2.5 3.333h-2.5V15h2.5v-1.667Zm5.954-6.238a.833.833 0 0 1 .725-.424h2.613c.29 0 .56.15.712.399l2.175 3.564c.139.227.16.507.058.753l-.731 1.765.507.838a.833.833 0 0 1-1.427.862l-.725-1.199a.833.833 0 0 1-.056-.75l.73-1.762-1.71-2.804h-.668l.44.727a1.96 1.96 0 1 1-3.357 2.029l-.44-.726-.334.638 1.681 2.782 1.923.16c.267.022.506.17.644.4l.725 1.199a.833.833 0 1 1-1.426.862l-.505-.835-1.923-.16a.833.833 0 0 1-.644-.4L8.63 11.465a.833.833 0 0 1-.025-.818l1.24-2.364a.833.833 0 0 1 1.45-.044L12.5 10.23a.294.294 0 0 0 .504-.304L11.8 7.935a.834.834 0 0 1-.012-.84Z" clip-rule="evenodd"/>
</svg>
