<svg width="17" height="14" viewBox="0 0 17 14" fill="none" xmlns="http://www.w3.org/2000/svg">
<path fill-rule="evenodd" clip-rule="evenodd" d="M1.66667 1.4881C1.66667 0.67424 2.32199 0 3.14815 0H13.5185C14.3447 0 15 0.67424 15 1.4881V9.16667C15.9205 9.16667 16.6667 9.91286 16.6667 10.8333V11.6667C16.6667 12.5871 15.9205 13.3333 15 13.3333H1.66667C0.746192 13.3333 0 12.5871 0 11.6667V10.8333C0 9.91286 0.746192 9.16667 1.66667 9.16667V1.4881ZM3.33333 9.16667H13.3333V1.66667H3.33333V9.16667ZM5.22989 2.75862C5.54729 2.42535 6.07477 2.41248 6.40805 2.72988L8.59555 4.81322C8.7607 4.9705 8.85417 5.1886 8.85417 5.41667C8.85417 5.64473 8.7607 5.86283 8.59555 6.02011L6.40805 8.10345C6.07477 8.42085 5.54729 8.40799 5.22989 8.07471C4.91248 7.74144 4.92535 7.21396 5.25862 6.89655L6.8125 5.41667L5.25862 3.93678C4.92535 3.61938 4.91248 3.0919 5.22989 2.75862ZM8.33333 7.5C8.33333 7.03976 8.70643 6.66667 9.16667 6.66667H10.8333C11.2936 6.66667 11.6667 7.03976 11.6667 7.5C11.6667 7.96024 11.2936 8.33333 10.8333 8.33333H9.16667C8.70643 8.33333 8.33333 7.96024 8.33333 7.5ZM1.66667 10.8333V11.6667H15V10.8333H1.66667Z" fill="#FFA600"/>
</svg>
